<svg>

    <symbol id="facebook" width="62" height="62" viewBox="0 0 62 62" fill="none"
        xmlns="http://www.w3.org/2000/svg">
        <circle cx="31" cy="31" r="30" stroke="white" stroke-opacity="0.2" />
        <path
            d="M28.8516 41.9839V33.0386H25.8438V29.4839H28.8516V26.6714C28.8516 25.187 29.2682 24.0412 30.1016 23.2339C30.9349 22.4006 32.0417 21.9839 33.4219 21.9839C34.5417 21.9839 35.4531 22.036 36.1562 22.1401V25.3042H34.2812C33.5781 25.3042 33.0964 25.4604 32.8359 25.7729C32.6276 26.0334 32.5234 26.45 32.5234 27.0229V29.4839H35.8438L35.375 33.0386H32.5234V41.9839H28.8516Z"
            fill="white" />
    </symbol>

    <symbol id="twitter" width="62" height="62" viewBox="0 0 62 62" fill="none"
        xmlns="http://www.w3.org/2000/svg">
        <circle cx="31" cy="31" r="30" stroke="white" stroke-opacity="0.2" />
        <path
            d="M38.9297 27.9214C38.9557 28.0256 38.9688 28.1948 38.9688 28.4292C38.9688 30.3042 38.513 32.1141 37.6016 33.8589C36.6641 35.7078 35.349 37.1792 33.6562 38.2729C31.8073 39.4969 29.6849 40.1089 27.2891 40.1089C24.9974 40.1089 22.901 39.4969 21 38.2729C21.2865 38.299 21.612 38.312 21.9766 38.312C23.8776 38.312 25.5833 37.7261 27.0938 36.5542C26.1823 36.5542 25.375 36.2938 24.6719 35.7729C23.9948 35.2261 23.526 34.549 23.2656 33.7417C23.526 33.7677 23.7734 33.7808 24.0078 33.7808C24.3724 33.7808 24.737 33.7417 25.1016 33.6636C24.1641 33.4552 23.3828 32.9735 22.7578 32.2183C22.1328 31.4631 21.8203 30.6037 21.8203 29.6401V29.562C22.3932 29.9006 23.0052 30.0828 23.6562 30.1089C23.1094 29.7183 22.6667 29.2235 22.3281 28.6245C21.9896 28.0256 21.8203 27.3745 21.8203 26.6714C21.8203 25.9422 22.0156 25.2521 22.4062 24.6011C23.4219 25.8771 24.6589 26.8927 26.1172 27.6479C27.6016 28.4032 29.1771 28.8198 30.8438 28.8979C30.7917 28.5854 30.7656 28.2729 30.7656 27.9604C30.7656 27.2313 30.9479 26.5542 31.3125 25.9292C31.6771 25.2782 32.1719 24.7703 32.7969 24.4058C33.4219 24.0412 34.099 23.8589 34.8281 23.8589C35.4271 23.8589 35.974 23.9761 36.4688 24.2104C36.9896 24.4448 37.4453 24.7573 37.8359 25.1479C38.7734 24.9657 39.6458 24.6401 40.4531 24.1714C40.1406 25.1349 39.5417 25.8901 38.6562 26.437C39.4375 26.3328 40.2188 26.1115 41 25.7729C40.4271 26.6063 39.737 27.3224 38.9297 27.9214Z"
            fill="white" />
    </symbol>

    <symbol id="instagram" width="61.000000" height="61.000000" viewBox="0 0 61 61" fill="none"
        xmlns="http://www.w3.org/2000/svg" xmlns:xlink="http://www.w3.org/1999/xlink">
        <desc>
            Created with Pixso.
        </desc>
        <defs />
        <rect id="instagram" width="60.000000" height="60.000000"
            transform="translate(0.500000 0.500000)" fill="#FFFFFF" fill-opacity="0" />
        <circle id="Ellipse" cx="30.500000" cy="30.500000" r="30.000000" stroke="#FFFFFF"
            stroke-opacity="0.200000" stroke-width="1.000000" />
        <path id=""
            d="M30.5 26.4917C29.6927 26.4917 28.9375 26.7 28.2344 27.1167C27.5573 27.5073 27.0104 28.0542 26.5938 28.7573C26.2031 29.4344 26.0078 30.1766 26.0078 30.9839C26.0078 31.7912 26.2031 32.5464 26.5938 33.2495C27.0104 33.9266 27.5573 34.4735 28.2344 34.8901C28.9375 35.2808 29.6927 35.4761 30.5 35.4761C31.3073 35.4761 32.0495 35.2808 32.7266 34.8901C33.4297 34.4735 33.9766 33.9266 34.3672 33.2495C34.7839 32.5464 34.9922 31.7912 34.9922 30.9839C34.9922 30.1766 34.7839 29.4344 34.3672 28.7573C33.9766 28.0542 33.4297 27.5073 32.7266 27.1167C32.0495 26.7 31.3073 26.4917 30.5 26.4917ZM30.5 33.9136C29.6927 33.9136 29.0026 33.6271 28.4297 33.0542C27.8568 32.4813 27.5703 31.7912 27.5703 30.9839C27.5703 30.1766 27.8568 29.4865 28.4297 28.9136C29.0026 28.3407 29.6927 28.0542 30.5 28.0542C31.3073 28.0542 31.9974 28.3407 32.5703 28.9136C33.1432 29.4865 33.4297 30.1766 33.4297 30.9839C33.4297 31.7912 33.1432 32.4813 32.5703 33.0542C31.9974 33.6271 31.3073 33.9136 30.5 33.9136ZM36.2422 26.2964C36.2161 26.5828 36.099 26.8302 35.8906 27.0386C35.7083 27.2469 35.474 27.3511 35.1875 27.3511C34.901 27.3511 34.6536 27.2469 34.4453 27.0386C34.237 26.8302 34.1328 26.5828 34.1328 26.2964C34.1328 26.0099 34.237 25.7625 34.4453 25.5542C34.6536 25.3459 34.901 25.2417 35.1875 25.2417C35.474 25.2417 35.7214 25.3459 35.9297 25.5542C36.138 25.7625 36.2422 26.0099 36.2422 26.2964ZM39.2109 27.3511C39.1589 26.5959 39.0417 25.9448 38.8594 25.398C38.625 24.7469 38.2604 24.187 37.7656 23.7183C37.2969 23.2235 36.737 22.8589 36.0859 22.6245C35.5391 22.4422 34.888 22.3381 34.1328 22.312C33.4036 22.2599 32.1927 22.2339 30.5 22.2339C28.8073 22.2339 27.5833 22.2599 26.8281 22.312C26.099 22.3381 25.4609 22.4422 24.9141 22.6245C24.263 22.8589 23.6901 23.2235 23.1953 23.7183C22.7266 24.187 22.375 24.7469 22.1406 25.398C21.9583 25.9448 21.8411 26.5959 21.7891 27.3511C21.763 28.0802 21.75 29.2912 21.75 30.9839C21.75 32.6766 21.763 33.9006 21.7891 34.6558C21.8411 35.3849 21.9583 36.0229 22.1406 36.5698C22.375 37.2209 22.7266 37.7938 23.1953 38.2886C23.6901 38.7573 24.263 39.0959 24.9141 39.3042C25.4609 39.5125 26.099 39.6297 26.8281 39.6558C27.5833 39.7078 28.8073 39.7339 30.5 39.7339C32.1927 39.7339 33.4036 39.7078 34.1328 39.6558C34.888 39.6297 35.5391 39.5256 36.0859 39.3433C36.737 39.1089 37.2969 38.7573 37.7656 38.2886C38.2604 37.7938 38.625 37.2209 38.8594 36.5698C39.0417 36.0229 39.1458 35.3849 39.1719 34.6558C39.224 33.9006 39.25 32.6766 39.25 30.9839C39.25 29.2912 39.237 28.0802 39.2109 27.3511ZM37.3359 36.1401C37.0234 36.9214 36.4635 37.4813 35.6562 37.8198C35.2396 37.9761 34.5365 38.0802 33.5469 38.1323C33 38.1584 32.1927 38.1714 31.125 38.1714L29.875 38.1714C28.8333 38.1714 28.026 38.1584 27.4531 38.1323C26.4896 38.0802 25.7865 37.9761 25.3438 37.8198C24.5625 37.5073 24.0026 36.9474 23.6641 36.1401C23.5078 35.6974 23.4036 34.9943 23.3516 34.0308C23.3255 33.4578 23.3125 32.6506 23.3125 31.6089L23.3125 30.3589C23.3125 29.3172 23.3255 28.5099 23.3516 27.937C23.4036 26.9474 23.5078 26.2443 23.6641 25.8276C23.9766 25.0203 24.5365 24.4605 25.3438 24.148C25.7865 23.9917 26.4896 23.8875 27.4531 23.8355C28.026 23.8094 28.8333 23.7964 29.875 23.7964L31.125 23.7964C32.1667 23.7964 32.974 23.8094 33.5469 23.8355C34.5365 23.8875 35.2396 23.9917 35.6562 24.148C36.4635 24.4605 37.0234 25.0203 37.3359 25.8276C37.4922 26.2443 37.5964 26.9474 37.6484 27.937C37.6745 28.4839 37.6875 29.2912 37.6875 30.3589L37.6875 31.6089C37.6875 32.6506 37.6745 33.4578 37.6484 34.0308C37.5964 34.9943 37.4922 35.6974 37.3359 36.1401Z"
            fill="#FFFFFF" fill-opacity="1.000000" fill-rule="evenodd" />
    </symbol>

    <symbol id="arrow" width="61.000000" height="61.000000" viewBox="0 0 61 61" fill="none"
        xmlns="http://www.w3.org/2000/svg" xmlns:xlink="http://www.w3.org/1999/xlink">
        <desc>
            Created with Pixso.
        </desc>
        <defs />
        <rect id="down-btn" width="60.000000" height="60.000000"
            transform="translate(0.500000 0.500000)" fill="#FFFFFF" fill-opacity="0" />
        <rect id="down-btn" width="60.000000" height="60.000000"
            transform="translate(0.500000 0.500000)" fill="#FFFFFF" fill-opacity="0" />
        <circle id="Ellipse" cx="30.500000" cy="30.500000" r="30.000000" stroke="#FFFFFF"
            stroke-opacity="0.200000" stroke-width="1.000000" />
        <ellipse id="Ellipse" cx="30.500000" cy="30.500000" rx="20.000000" ry="20.000002"
            fill="#FFFFFF" fill-opacity="1.000000" />
        <path id=""
            d="M29.8359 32.7891C30.1875 33.1406 30.7734 33.1406 31.125 32.7891L36.4375 27.4766C36.8281 27.0859 36.8281 26.5 36.4375 26.1484L35.5781 25.25C35.1875 24.8984 34.6016 24.8984 34.25 25.25L30.4609 29.0391L26.7109 25.25C26.3594 24.8984 25.7734 24.8984 25.3828 25.25L24.5234 26.1484C24.1328 26.5 24.1328 27.0859 24.5234 27.4766L29.8359 32.7891Z"
            fill="#333333" fill-opacity="1.000000" fill-rule="evenodd" />
    </symbol>

    <symbol id="map" width="15" height="16" viewBox="0 0 15 16" fill="none"
        xmlns="http://www.w3.org/2000/svg">
        <path
            d="M7.2954 1.3335C4.61373 1.3335 2.4318 3.72616 2.4318 6.6635C2.41417 10.9602 7.11058 14.5228 7.2954 14.6668C7.2954 14.6668 12.1766 10.9602 12.159 6.66683C12.159 3.72616 9.97707 1.3335 7.2954 1.3335ZM7.2954 9.3335C5.95183 9.3335 4.8636 8.14016 4.8636 6.66683C4.8636 5.1935 5.95183 4.00016 7.2954 4.00016C8.63897 4.00016 9.7272 5.1935 9.7272 6.66683C9.7272 8.14016 8.63897 9.3335 7.2954 9.3335Z"
            fill="#E8C300" />
    </symbol>

    <symbol id="phone" width="9.119263" height="11.000000" viewBox="0 0 9.11926 11" fill="none" xmlns="http://www.w3.org/2000/svg" xmlns:xlink="http://www.w3.org/1999/xlink">
        <desc>
                Created with Pixso.
        </desc>
        <defs>
            <clipPath id="clip18130_2">
                <rect id="el:phone" width="9.119252" height="11.000000" fill="white" fill-opacity="0"/>
            </clipPath>
        </defs>
        <rect id="el:phone" width="9.119252" height="11.000000" fill="#FFFFFF" fill-opacity="0"/>
        <g clip-path="url(#clip18130_2)">
            <path id="Vector" d="M8.99237 9.14697L7.70663 10.6855C7.51685 10.9199 7.26529 10.9995 7.02029 11C5.93686 10.9609 4.91275 10.3188 4.07187 9.65967C2.69168 8.44873 1.42526 6.94678 0.630432 5.13184C0.325592 4.37061 -0.032074 3.3999 0.00210571 2.55029C0.00512695 2.23047 0.0765381 1.91699 0.263092 1.71094L1.5488 0.161133C1.8158 -0.112793 2.07397 -0.0180664 2.24481 0.300781L3.27917 2.66699C3.38806 2.94727 3.32559 3.24756 3.16318 3.44775L2.68948 4.01855C2.66025 4.06689 2.64163 4.12207 2.64114 4.18213C2.82278 5.03027 3.37308 5.81201 3.85919 6.34961C4.34531 6.8877 4.86783 7.6167 5.54608 7.78906C5.62991 7.81738 5.7326 7.82715 5.79257 7.75977L6.34363 7.08398C6.53357 6.91016 6.80783 6.8252 7.01062 6.96729L7.02029 6.96729L8.88602 8.2959C9.15991 8.50293 9.18845 8.90332 8.99237 9.14697Z" fill="#E8C300" fill-opacity="1.000000" fill-rule="nonzero"/>
        </g>
    </symbol>

    <symbol id="email" width="14.590820" height="16.000000" viewBox="0 0 14.5908 16" fill="none" xmlns="http://www.w3.org/2000/svg" xmlns:xlink="http://www.w3.org/1999/xlink">
        <desc>
                Created with Pixso.
        </desc>
        <defs>
            <clipPath id="clip18130_4">
                <rect id="clarity:email-solid" width="14.590803" height="16.000000" fill="white" fill-opacity="0"/>
            </clipPath>
        </defs>
        <rect id="clarity:email-solid" width="14.590803" height="16.000000" fill="#FFFFFF" fill-opacity="0"/>
        <g clip-path="url(#clip18130_4)">
            <path id="Vector" d="M13.1033 2.66699C13.0481 2.66064 12.9924 2.66064 12.9372 2.66699L1.58875 2.66699C1.51605 2.66797 1.44379 2.68018 1.37396 2.70215L7.23053 9.09814L13.1033 2.66699Z" fill="#E8C300" fill-opacity="1.000000" fill-rule="nonzero"/>
            <path id="Vector" d="M13.7032 3.28418L7.802 9.72852C7.65015 9.89404 7.4447 9.9873 7.23053 9.9873C7.01642 9.9873 6.81097 9.89404 6.65906 9.72852L0.810608 3.33301C0.792603 3.40576 0.783081 3.47998 0.782227 3.55518L0.782227 12.4443C0.782227 12.6797 0.867615 12.9062 1.01965 13.0728C1.17169 13.2393 1.37787 13.333 1.59283 13.333L12.9412 13.333C13.1562 13.333 13.3624 13.2393 13.5144 13.0728C13.6664 12.9062 13.7518 12.6797 13.7518 12.4443L13.7518 3.55518C13.7486 3.46289 13.7322 3.37109 13.7032 3.28418ZM2.14807 12.4443L1.58472 12.4443L1.58472 11.8086L4.53125 8.604L5.10272 9.23096L2.14807 12.4443ZM12.9331 12.4443L12.3657 12.4443L9.41107 9.23096L9.98254 8.604L12.9291 11.8086L12.9331 12.4443Z" fill="#E8C300" fill-opacity="1.000000" fill-rule="nonzero"/>
        </g>
    </symbol>
    
    


</svg>